P2 2 3 255
0 1 2 3 4 5 
