P2 2 3 255
0 15 30
45 60 75

